<?xml version="1.0" encoding="UTF-8"?>
<svg width="36px" height="36px" viewBox="0 0 36 36" version="1.1" xmlns="http://www.w3.org/2000/svg" xmlns:xlink="http://www.w3.org/1999/xlink">
    <!-- Generator: Sketch 50.2 (55047) - http://www.bohemiancoding.com/sketch -->
    <title>UserIcon</title>
    <desc>Created with Sketch.</desc>
    <defs></defs>
    <g id="Symbols" stroke="none" stroke-width="1" fill="none" fill-rule="evenodd">
        <g id="0long/Header/Login" transform="translate(-1242.000000, -14.000000)" fill="#006DF0" fill-rule="nonzero">
            <g id="UserIcon" transform="translate(1242.000000, 14.000000)">
                <path d="M36,18 C36,8.07512727 27.9248727,0 18,0 C8.07512727,0 0,8.07512727 0,18 C0,23.2422545 2.25425455,27.9674182 5.84247273,31.2597818 L5.82545455,31.2748364 L6.40930909,31.7670545 C6.44727273,31.7991273 6.48850909,31.8253091 6.52647273,31.8567273 C6.83672727,32.1139636 7.15810909,32.3581091 7.48538182,32.5944 C7.59141818,32.6709818 7.69745455,32.7475636 7.80545455,32.8221818 C8.15498182,33.0630545 8.51367273,33.2914909 8.88021818,33.5081455 C8.96007273,33.5552727 9.04058182,33.6010909 9.12109091,33.6469091 C9.52232727,33.8753455 9.93207273,34.0906909 10.3516364,34.2883636 C10.3824,34.3027636 10.4138182,34.3158545 10.4445818,34.3302545 C11.8119273,34.9658182 13.2715636,35.4325091 14.7979636,35.7080727 C14.8378909,35.7152727 14.8778182,35.7224727 14.9184,35.7296727 C15.3922909,35.8114909 15.8714182,35.8769455 16.3564364,35.9208 C16.4153455,35.9260364 16.4742545,35.9293091 16.5338182,35.9345455 C17.0168727,35.9744727 17.5051636,36 18,36 C18.4902545,36 18.9739636,35.9744727 19.4544,35.9358545 C19.5152727,35.9306182 19.5761455,35.9273455 19.6370182,35.9221091 C20.1181091,35.8782545 20.5933091,35.8147636 21.0626182,35.7342545 C21.1032,35.7270545 21.1444364,35.7198545 21.1850182,35.712 C22.6885091,35.4423273 24.1272,34.9861091 25.4768727,34.3669091 C25.5266182,34.344 25.5770182,34.3224 25.6267636,34.2988364 C26.0306182,34.1090182 26.4253091,33.9041455 26.8121455,33.6861818 C26.9083636,33.6318545 27.0039273,33.5768727 27.0994909,33.5205818 C27.4516364,33.3130909 27.7978909,33.0964364 28.1343273,32.8660364 C28.2554182,32.7835636 28.3738909,32.6965091 28.4936727,32.6101091 C28.7810182,32.4032727 29.0631273,32.1898909 29.3373818,31.9666909 C29.3982545,31.9176 29.4637091,31.8750545 29.5232727,31.8246545 L30.1221818,31.3245818 L30.1045091,31.3095273 C33.7241455,28.0158545 36,23.2690909 36,18 Z M1.30909091,18 C1.30909091,8.79643636 8.79643636,1.30909091 18,1.30909091 C27.2035636,1.30909091 34.6909091,8.79643636 34.6909091,18 C34.6909091,22.9594909 32.5145455,27.4182545 29.0690182,30.4776 C28.8765818,30.3447273 28.6828364,30.2256 28.4845091,30.1261091 L22.9424727,27.3554182 C22.4450182,27.1066909 22.1360727,26.6066182 22.1360727,26.0509091 L22.1360727,24.1154182 C22.2643636,23.9570182 22.3998545,23.7776727 22.5399273,23.5806545 C23.2573091,22.5674182 23.8326545,21.4402909 24.2522182,20.2274182 C25.0815273,19.8333818 25.6169455,19.0073455 25.6169455,18.0746182 L25.6169455,15.7542545 C25.6169455,15.1867636 25.4088,14.6362909 25.0363636,14.2036364 L25.0363636,11.1488727 C25.0704,10.8091636 25.1908364,8.892 23.8038545,7.31061818 C22.5975273,5.93345455 20.6450182,5.23636364 18,5.23636364 C15.3549818,5.23636364 13.4024727,5.93345455 12.1961455,7.30996364 C10.8091636,8.89134545 10.9296,10.8085091 10.9636364,11.1482182 L10.9636364,14.2029818 C10.5918545,14.6356364 10.3830545,15.1861091 10.3830545,15.7536 L10.3830545,18.0739636 C10.3830545,18.7946182 10.7064,19.4668364 11.2601455,19.9204364 C11.7903273,21.9973091 12.8814545,23.5695273 13.2846545,24.1023273 L13.2846545,25.9965818 C13.2846545,26.5306909 12.9933818,27.0216 12.5240727,27.2781818 L7.34858182,30.1012364 C7.18363636,30.1909091 7.02,30.2956364 6.85636364,30.4128 C3.45338182,27.3547636 1.30909091,22.9234909 1.30909091,18 Z M27.7913455,31.5045818 C27.5622545,31.6708364 27.3292364,31.8318545 27.0929455,31.9856727 C26.9842909,32.0563636 26.8762909,32.1270545 26.7656727,32.1957818 C26.4567273,32.3869091 26.1425455,32.5688727 25.8218182,32.7390545 C25.7511273,32.7763636 25.6797818,32.8117091 25.6084364,32.8483636 C24.8714182,33.2260364 24.1088727,33.5506909 23.3253818,33.8144727 C23.2978909,33.8236364 23.2704,33.8334545 23.2422545,33.8426182 C22.8318545,33.9787636 22.4162182,34.0998545 21.996,34.2039273 C21.9946909,34.2039273 21.9933818,34.2045818 21.9920727,34.2045818 C21.5679273,34.3093091 21.1385455,34.3963636 20.7065455,34.4677091 C20.6947636,34.4696727 20.6829818,34.4722909 20.6712,34.4742545 C20.2647273,34.5403636 19.8549818,34.5881455 19.4439273,34.6241455 C19.3712727,34.6306909 19.2986182,34.6352727 19.2253091,34.6405091 C18.8188364,34.6712727 18.4104,34.6909091 18,34.6909091 C17.5850182,34.6909091 17.1713455,34.6706182 16.7596364,34.6398545 C16.6882909,34.6346182 16.6169455,34.6300364 16.5462545,34.6234909 C16.1312727,34.5868364 15.7182545,34.5377455 15.3091636,34.4709818 C15.2908364,34.4677091 15.2725091,34.4644364 15.2541818,34.4611636 C14.3888727,34.3165091 13.5373091,34.1037818 12.708,33.8256 C12.6824727,33.8170909 12.6562909,33.8079273 12.6307636,33.7994182 C12.2190545,33.6593455 11.8119273,33.5042182 11.412,33.3327273 C11.4093818,33.3314182 11.4061091,33.3301091 11.4034909,33.3288 C11.0251636,33.1658182 10.6540364,32.9851636 10.2874909,32.7946909 C10.2397091,32.7698182 10.1912727,32.7462545 10.1441455,32.7207273 C9.80967273,32.5420364 9.4824,32.3489455 9.15970909,32.1473455 C9.06414545,32.0871273 8.96923636,32.0262545 8.87498182,31.9647273 C8.57781818,31.7703273 8.28458182,31.5680727 7.9992,31.3540364 C7.96974545,31.3317818 7.9416,31.3082182 7.91214545,31.2859636 C7.93309091,31.2741818 7.95403636,31.2624 7.97498182,31.2506182 L13.1504727,28.4275636 C14.0406545,27.9418909 14.5937455,27.0104727 14.5937455,25.9965818 L14.5930909,23.6389091 L14.4425455,23.4569455 C14.4281455,23.4405818 13.0130182,21.7191273 12.4782545,19.3882909 L12.4186909,19.1290909 L12.1954909,18.9844364 C11.8806545,18.7808727 11.6921455,18.4405091 11.6921455,18.0733091 L11.6921455,15.7529455 C11.6921455,15.4485818 11.8210909,15.1651636 12.0567273,14.9524364 L12.2727273,14.7573818 L12.2727273,11.1115636 L12.2668364,11.0258182 C12.2648727,11.0101091 12.0717818,9.43592727 13.1805818,8.172 C14.1270545,7.09330909 15.7490182,6.54545455 18,6.54545455 C20.2424727,6.54545455 21.8592,7.08872727 22.8082909,8.15956364 C23.9157818,9.4104 23.7344727,11.0140364 23.7331636,11.0271273 L23.7272727,14.7586909 L23.9432727,14.9537455 C24.1782545,15.1658182 24.3078545,15.4498909 24.3078545,15.7542545 L24.3078545,18.0746182 C24.3078545,18.5413091 23.9904,18.9648 23.5348364,19.1055273 L23.2095273,19.2056727 L23.1048,19.5296727 C22.7186182,20.7294545 22.1688,21.8376 21.4710545,22.8233455 C21.2995636,23.0655273 21.1326545,23.2802182 20.9893091,23.4445091 L20.8269818,23.6297455 L20.8269818,26.0509091 C20.8269818,27.1060364 21.4134545,28.0551273 22.3573091,28.5264 L27.8993455,31.2970909 C27.9346909,31.3147636 27.9693818,31.3330909 28.0040727,31.3514182 C27.9340364,31.4044364 27.8620364,31.4535273 27.7913455,31.5045818 Z" id="Shape"></path>
            </g>
        </g>
    </g>
</svg>