<?xml version="1.0" encoding="UTF-8"?>
<svg width="273px" height="29px" viewBox="0 0 273 29" version="1.1" xmlns="http://www.w3.org/2000/svg" xmlns:xlink="http://www.w3.org/1999/xlink">
    <!-- Generator: Sketch 52.3 (67297) - http://www.bohemiancoding.com/sketch -->
    <title>Brand</title>
    <desc>Created with Sketch.</desc>
    <defs>
        <rect id="path-1" x="0" y="1.8189894e-12" width="56" height="30"></rect>
        <polygon id="path-3" points="0 0 19.4016315 0 19.4016315 28.0770009 20.9942869 28.0770009 20.9942869 0 27.998616 0 27.998616 28.0770009 29.7385486 28.0770009 29.7385486 0 49 0 49 42 0 42"></polygon>
        <polygon id="path-5" points="0 0 21 0 21 14.6367281 0 14.6367281"></polygon>
        <linearGradient x1="30.3933951%" y1="7.21670297%" x2="67.5990178%" y2="10.9041654%" id="linearGradient-7">
            <stop stop-color="#0052CC" offset="0%"></stop>
            <stop stop-color="#2684FF" offset="100%"></stop>
        </linearGradient>
        <polygon id="path-8" points="0.598368496 0 20 0 20 14 0.598368496 14.0489402"></polygon>
    </defs>
    <g id="Symbols" stroke="none" stroke-width="1" fill="none" fill-rule="evenodd">
        <g id="0long/Header/Login" transform="translate(-66.000000, -14.000000)">
            <g id="Brand" transform="translate(65.000000, 7.000000)">
                <g id="Group-2">
                    <g id="Group" transform="translate(0.000000, 6.000000)">
                        <mask id="mask-2" fill="white">
                            <use xlink:href="#path-1"></use>
                        </mask>
                        <g id="Mask" fill-rule="nonzero"></g>
                        <g mask="url(#mask-2)">
                            <g transform="translate(28.054472, 15.110015) rotate(-34.000000) translate(-28.054472, -15.110015) translate(3.554472, -5.889985)">
                                <g transform="translate(-0.000000, 0.000000)">
                                    <g id="Combined-Shape">
                                        <mask id="mask-4" fill="white">
                                            <use xlink:href="#path-3"></use>
                                        </mask>
                                        <g id="Mask" fill-rule="nonzero"></g>
                                        <path d="M21,28 L21,26.1270532 C18.9407864,27.31824 16.55001,28 14,28 C6.2680135,28 0,21.7319865 0,14 C0,6.2680135 6.2680135,0 14,0 C21.7319865,0 28,6.2680135 28,14 L28,15.8729468 C30.0592136,14.68176 32.44999,14 35,14 C42.7319865,14 49,20.2680135 49,28 C49,35.7319865 42.7319865,42 35,42 C27.2680135,42 21,35.7319865 21,28 Z M35,35 C38.8659932,35 42,31.8659932 42,28 C42,24.1340068 38.8659932,21 35,21 C31.1340068,21 28,24.1340068 28,28 C28,31.8659932 31.1340068,35 35,35 Z M14,21 C17.8659932,21 21,17.8659932 21,14 C21,10.1340068 17.8659932,7 14,7 C10.1340068,7 7,10.1340068 7,14 C7,17.8659932 10.1340068,21 14,21 Z" fill="#2684FF" fill-rule="nonzero" mask="url(#mask-4)"></path>
                                    </g>
                                    <g id="Combined-Shape" transform="translate(28.000000, 14.000000)">
                                        <mask id="mask-6" fill="white">
                                            <use xlink:href="#path-5"></use>
                                        </mask>
                                        <g id="Mask" fill-rule="nonzero"></g>
                                        <path d="M7,28 C-0.731986497,28 -7,21.7319865 -7,14 C-7,6.2680135 -0.731986497,0 7,0 C14.7319865,0 21,6.2680135 21,14 C21,21.7319865 14.7319865,28 7,28 Z M7,21 C10.8659932,21 14,17.8659932 14,14 C14,10.1340068 10.8659932,7 7,7 C3.13400675,7 -1.77635684e-15,10.1340068 -1.77635684e-15,14 C-1.77635684e-15,17.8659932 3.13400675,21 7,21 Z" fill="url(#linearGradient-7)" fill-rule="nonzero" mask="url(#mask-6)"></path>
                                    </g>
                                    <g id="Combined-Shape-Copy" transform="translate(10.000000, 20.500000) scale(-1, -1) translate(-10.000000, -20.500000) translate(0.000000, 13.000000)">
                                        <mask id="mask-9" fill="white">
                                            <use xlink:href="#path-8"></use>
                                        </mask>
                                        <g id="Mask" fill-rule="nonzero"></g>
                                        <path d="M6,28 C-1.7319865,28 -8,21.7319865 -8,14 C-8,6.2680135 -1.7319865,0 6,0 C13.7319865,0 20,6.2680135 20,14 C20,21.7319865 13.7319865,28 6,28 Z M6,21 C9.86599325,21 13,17.8659932 13,14 C13,10.1340068 9.86599325,7 6,7 C2.13400675,7 -1,10.1340068 -1,14 C-1,17.8659932 2.13400675,21 6,21 Z" id="Combined-Shape" fill="url(#linearGradient-7)" fill-rule="nonzero" mask="url(#mask-9)"></path>
                                    </g>
                                </g>
                            </g>
                        </g>
                    </g>
                    <path d="M80.17,26.815 C80.3900011,26.815 80.5799992,26.8999991 80.74,27.07 L82.33,28.795 C81.4499956,29.8850055 80.3675064,30.7199971 79.0825,31.3 C77.7974936,31.8800029 76.255009,32.17 74.455,32.17 C72.8449919,32.17 71.3975064,31.8950027 70.1125,31.345 C68.8274936,30.7949973 67.7300045,30.0300049 66.82,29.05 C65.9099954,28.0699951 65.2125024,26.9000068 64.7275,25.54 C64.2424976,24.1799932 64,22.695008 64,21.085 C64,19.4549918 64.2699973,17.9625068 64.81,16.6075 C65.3500027,15.2524932 66.1099951,14.0850049 67.09,13.105 C68.0700049,12.1249951 69.2424932,11.3625027 70.6075,10.8175 C71.9725068,10.2724973 73.4799917,10 75.13,10 C76.7400081,10 78.147494,10.2574974 79.3525,10.7725 C80.557506,11.2875026 81.5899957,11.9699958 82.45,12.82 L81.1,14.695 C81.0199996,14.8150006 80.9175006,14.9199995 80.7925,15.01 C80.6674994,15.1000004 80.4950011,15.145 80.275,15.145 C80.0449988,15.145 79.8100012,15.0550009 79.57,14.875 C79.3299988,14.6949991 79.0250018,14.5000011 78.655,14.29 C78.2849981,14.079999 77.8175028,13.8850009 77.2525,13.705 C76.6874972,13.5249991 75.9700043,13.435 75.1,13.435 C74.0799949,13.435 73.1425043,13.6124982 72.2875,13.9675 C71.4324957,14.3225018 70.6975031,14.8299967 70.0825,15.49 C69.4674969,16.1500033 68.9875017,16.9524953 68.6425,17.8975 C68.2974983,18.8425047 68.125,19.9049941 68.125,21.085 C68.125,22.3050061 68.2974983,23.3899952 68.6425,24.34 C68.9875017,25.2900048 69.4549971,26.0899968 70.045,26.74 C70.635003,27.3900032 71.329996,27.8874983 72.13,28.2325 C72.930004,28.5775017 73.7899954,28.75 74.71,28.75 C75.2600027,28.75 75.7574978,28.7200003 76.2025,28.66 C76.6475022,28.5999997 77.0574981,28.5050006 77.4325,28.375 C77.8075019,28.2449994 78.1624983,28.077501 78.4975,27.8725 C78.8325017,27.667499 79.1649983,27.4150015 79.495,27.115 C79.5950005,27.0249996 79.6999994,26.9525003 79.81,26.8975 C79.9200005,26.8424997 80.0399993,26.815 80.17,26.815 Z M106.18,21.085 C106.18,22.675008 105.915003,24.1474932 105.385,25.5025 C104.854997,26.8575068 104.110005,28.0299951 103.15,29.02 C102.189995,30.0100049 101.035007,30.7824972 99.685,31.3375 C98.3349932,31.8925028 96.8400082,32.17 95.2,32.17 C93.5599918,32.17 92.0625068,31.8925028 90.7075,31.3375 C89.3524932,30.7824972 88.1925048,30.0100049 87.2275,29.02 C86.2624952,28.0299951 85.5150026,26.8575068 84.985,25.5025 C84.4549973,24.1474932 84.19,22.675008 84.19,21.085 C84.19,19.4949921 84.4549973,18.0225068 84.985,16.6675 C85.5150026,15.3124932 86.2624952,14.140005 87.2275,13.15 C88.1925048,12.159995 89.3524932,11.3875028 90.7075,10.8325 C92.0625068,10.2774972 93.5599918,10 95.2,10 C96.8400082,10 98.3349932,10.2799972 99.685,10.84 C101.035007,11.4000028 102.189995,12.1724951 103.15,13.1575 C104.110005,14.1425049 104.854997,15.3124932 105.385,16.6675 C105.915003,18.0225068 106.18,19.4949921 106.18,21.085 Z M102.04,21.085 C102.04,19.8949941 101.882502,18.8275047 101.5675,17.8825 C101.252498,16.9374953 100.800003,16.1350033 100.21,15.475 C99.619997,14.8149967 98.9025042,14.3100018 98.0575,13.96 C97.2124958,13.6099983 96.2600053,13.435 95.2,13.435 C94.1399947,13.435 93.1850042,13.6099983 92.335,13.96 C91.4849957,14.3100018 90.762503,14.8149967 90.1675,15.475 C89.572497,16.1350033 89.1150016,16.9374953 88.795,17.8825 C88.4749984,18.8275047 88.315,19.8949941 88.315,21.085 C88.315,22.275006 88.4749984,23.3424953 88.795,24.2875 C89.1150016,25.2325047 89.572497,26.0324967 90.1675,26.6875 C90.762503,27.3425033 91.4849957,27.8449982 92.335,28.195 C93.1850042,28.5450018 94.1399947,28.72 95.2,28.72 C96.2600053,28.72 97.2124958,28.5450018 98.0575,28.195 C98.9025042,27.8449982 99.619997,27.3425033 100.21,26.6875 C100.800003,26.0324967 101.252498,25.2325047 101.5675,24.2875 C101.882502,23.3424953 102.04,22.275006 102.04,21.085 Z M113.905,31.93 L109.855,31.93 L109.855,10.24 L113.905,10.24 L113.905,31.93 Z M120.895,10.24 C121.075001,10.24 121.224999,10.2474999 121.345,10.2625 C121.465001,10.2775001 121.5725,10.3074998 121.6675,10.3525 C121.7625,10.3975002 121.855,10.4624996 121.945,10.5475 C122.035,10.6325004 122.134999,10.7449993 122.245,10.885 L133.63,25.39 C133.59,25.0399983 133.5625,24.6975017 133.5475,24.3625 C133.5325,24.0274983 133.525,23.7150015 133.525,23.425 L133.525,10.24 L137.08,10.24 L137.08,31.93 L134.995,31.93 C134.674998,31.93 134.410001,31.8800005 134.2,31.78 C133.989999,31.6799995 133.785001,31.5000013 133.585,31.24 L122.245,16.795 C122.275,17.1150016 122.2975,17.4324984 122.3125,17.7475 C122.3275,18.0625016 122.335,18.3499987 122.335,18.61 L122.335,31.93 L118.78,31.93 L118.78,10.24 L120.895,10.24 Z M141.46,31.93 L141.46,10.24 L148.945,10.24 C150.365007,10.24 151.577495,10.3749987 152.5825,10.645 C153.587505,10.9150014 154.412497,11.2999975 155.0575,11.8 C155.702503,12.3000025 156.174998,12.9049965 156.475,13.615 C156.775001,14.3250036 156.925,15.1249956 156.925,16.015 C156.925,16.5250025 156.850001,17.0124977 156.7,17.4775 C156.549999,17.9425023 156.317502,18.377498 156.0025,18.7825 C155.687498,19.187502 155.287502,19.5549983 154.8025,19.885 C154.317498,20.2150017 153.740003,20.4949989 153.07,20.725 C156.050015,21.3950034 157.54,23.0049873 157.54,25.555 C157.54,26.4750046 157.365002,27.3249961 157.015,28.105 C156.664998,28.8850039 156.155003,29.5574972 155.485,30.1225 C154.814997,30.6875028 153.990005,31.1299984 153.01,31.45 C152.029995,31.7700016 150.910006,31.93 149.65,31.93 L141.46,31.93 Z M145.495,22.42 L145.495,28.78 L149.59,28.78 C150.340004,28.78 150.967497,28.6900009 151.4725,28.51 C151.977503,28.3299991 152.382498,28.0900015 152.6875,27.79 C152.992502,27.4899985 153.212499,27.140002 153.3475,26.74 C153.482501,26.339998 153.55,25.9150023 153.55,25.465 C153.55,24.9949976 153.475001,24.5725019 153.325,24.1975 C153.174999,23.8224981 152.940002,23.5025013 152.62,23.2375 C152.299998,22.9724987 151.890002,22.7700007 151.39,22.63 C150.889997,22.4899993 150.285004,22.42 149.575,22.42 L145.495,22.42 Z M145.495,19.63 L148.72,19.63 C150.090007,19.63 151.129996,19.3800025 151.84,18.88 C152.550004,18.3799975 152.905,17.5850055 152.905,16.495 C152.905,15.3649943 152.585003,14.5600024 151.945,14.08 C151.304997,13.5999976 150.305007,13.36 148.945,13.36 L145.495,13.36 L145.495,19.63 Z M180.07,31.93 L176.95,31.93 C176.599998,31.93 176.312501,31.8425009 176.0875,31.6675 C175.862499,31.4924991 175.7,31.2750013 175.6,31.015 L173.98,26.59 L164.995,26.59 L163.375,31.015 C163.295,31.2450012 163.137501,31.4549991 162.9025,31.645 C162.667499,31.835001 162.380002,31.93 162.04,31.93 L158.905,31.93 L167.425,10.24 L171.55,10.24 L180.07,31.93 Z M166.03,23.74 L172.945,23.74 L170.305,16.525 C170.184999,16.2049984 170.052501,15.8275022 169.9075,15.3925 C169.762499,14.9574978 169.620001,14.4850026 169.48,13.975 C169.339999,14.4850026 169.202501,14.9599978 169.0675,15.4 C168.932499,15.8400022 168.800001,16.2249983 168.67,16.555 L166.03,23.74 Z M186.475,23.455 L186.475,31.93 L182.44,31.93 L182.44,10.24 L189.055,10.24 C190.535007,10.24 191.802495,10.3924985 192.8575,10.6975 C193.912505,11.0025015 194.777497,11.4299972 195.4525,11.98 C196.127503,12.5300027 196.622498,13.1874962 196.9375,13.9525 C197.252502,14.7175038 197.41,15.5599954 197.41,16.48 C197.41,17.2100037 197.302501,17.8999968 197.0875,18.55 C196.872499,19.2000033 196.562502,19.7899974 196.1575,20.32 C195.752498,20.8500027 195.252503,21.314998 194.6575,21.715 C194.062497,22.115002 193.385004,22.4349988 192.625,22.675 C193.135003,22.9650015 193.574998,23.3799973 193.945,23.92 L199.375,31.93 L195.745,31.93 C195.394998,31.93 195.097501,31.8600007 194.8525,31.72 C194.607499,31.5799993 194.400001,31.3800013 194.23,31.12 L189.67,24.175 C189.499999,23.9149987 189.312501,23.7300005 189.1075,23.62 C188.902499,23.5099995 188.600002,23.455 188.2,23.455 L186.475,23.455 Z M186.475,20.56 L188.995,20.56 C189.755004,20.56 190.417497,20.465001 190.9825,20.275 C191.547503,20.0849991 192.012498,19.8225017 192.3775,19.4875 C192.742502,19.1524983 193.014999,18.7550023 193.195,18.295 C193.375001,17.8349977 193.465,17.3300027 193.465,16.78 C193.465,15.6799945 193.102504,14.835003 192.3775,14.245 C191.652496,13.654997 190.545007,13.36 189.055,13.36 L186.475,13.36 L186.475,20.56 Z M215.635,10.24 L215.635,13.45 L206.02,13.45 L206.02,19.465 L213.595,19.465 L213.595,22.57 L206.02,22.57 L206.02,28.705 L215.635,28.705 L215.635,31.93 L201.955,31.93 L201.955,10.24 L215.635,10.24 Z M224.335,20.77 L217.42,10.24 L221.44,10.24 C221.720001,10.24 221.922499,10.2774996 222.0475,10.3525 C222.172501,10.4275004 222.284999,10.5499991 222.385,10.72 L227.32,18.685 C227.37,18.5549994 227.425,18.4275006 227.485,18.3025 C227.545,18.1774994 227.615,18.0500007 227.695,17.92 L232.21,10.795 C232.430001,10.4249982 232.714998,10.24 233.065,10.24 L236.935,10.24 L229.945,20.605 L237.13,31.93 L233.095,31.93 C232.824999,31.93 232.607501,31.8600007 232.4425,31.72 C232.277499,31.5799993 232.140001,31.4200009 232.03,31.24 L227.005,22.93 C226.965,23.0500006 226.92,23.1624995 226.87,23.2675 C226.82,23.3725005 226.77,23.4699996 226.72,23.56 L221.905,31.24 C221.794999,31.4100009 221.660001,31.5674993 221.5,31.7125 C221.339999,31.8575007 221.140001,31.93 220.9,31.93 L217.12,31.93 L224.335,20.77 Z" id="COINBAREX" fill="#2684FF"></path>
                    <path d="M245.457031,21 L240.824219,21 L240.824219,9.7265625 L245.355469,9.7265625 C247.472656,9.7265625 248.746094,10.8046875 248.746094,12.5390625 C248.746094,13.71875 247.878906,14.7734375 246.769531,14.9609375 L246.769531,15.09375 C248.292969,15.25 249.308594,16.3359375 249.308594,17.8046875 C249.308594,19.7890625 247.863281,21 245.457031,21 Z M242.574219,11.2109375 L242.574219,14.5 L244.652344,14.5 C246.199219,14.5 247.003906,13.9296875 247.003906,12.859375 C247.003906,11.8203125 246.246094,11.2109375 244.949219,11.2109375 L242.574219,11.2109375 Z M242.574219,19.515625 L245.105469,19.515625 C246.683594,19.515625 247.519531,18.875 247.519531,17.6796875 C247.519531,16.5 246.652344,15.8828125 245.003906,15.8828125 L242.574219,15.8828125 L242.574219,19.515625 Z M254.847656,13.7578125 C253.605469,13.7578125 252.738281,14.6328125 252.644531,15.9609375 L256.941406,15.9609375 C256.902344,14.625 256.089844,13.7578125 254.847656,13.7578125 Z M256.933594,18.703125 L258.550781,18.703125 C258.183594,20.21875 256.808594,21.1640625 254.863281,21.1640625 C252.425781,21.1640625 250.933594,19.4921875 250.933594,16.7734375 C250.933594,14.0546875 252.457031,12.328125 254.855469,12.328125 C257.222656,12.328125 258.652344,13.9453125 258.652344,16.6171875 L258.652344,17.203125 L252.644531,17.203125 L252.644531,17.296875 C252.699219,18.7890625 253.566406,19.734375 254.910156,19.734375 C255.925781,19.734375 256.621094,19.3671875 256.933594,18.703125 Z M261.261719,10.375 L262.941406,10.375 L262.941406,12.53125 L264.785156,12.53125 L264.785156,13.9453125 L262.941406,13.9453125 L262.941406,18.3203125 C262.941406,19.2109375 263.308594,19.6015625 264.144531,19.6015625 C264.402344,19.6015625 264.550781,19.5859375 264.785156,19.5625 L264.785156,20.9609375 C264.511719,21.0078125 264.199219,21.046875 263.871094,21.046875 C262.003906,21.046875 261.261719,20.390625 261.261719,18.75 L261.261719,13.9453125 L259.910156,13.9453125 L259.910156,12.53125 L261.261719,12.53125 L261.261719,10.375 Z M269.542969,19.7265625 C270.808594,19.7265625 271.746094,18.921875 271.746094,17.8671875 L271.746094,17.15625 L269.667969,17.2890625 C268.496094,17.3671875 267.964844,17.765625 267.964844,18.515625 C267.964844,19.28125 268.628906,19.7265625 269.542969,19.7265625 Z M269.113281,21.140625 C267.472656,21.140625 266.277344,20.1484375 266.277344,18.59375 C266.277344,17.0625 267.417969,16.1796875 269.441406,16.0546875 L271.746094,15.921875 L271.746094,15.1875 C271.746094,14.2890625 271.152344,13.78125 270.003906,13.78125 C269.066406,13.78125 268.417969,14.125 268.230469,14.7265625 L266.605469,14.7265625 C266.777344,13.265625 268.152344,12.328125 270.082031,12.328125 C272.214844,12.328125 273.417969,13.390625 273.417969,15.1875 L273.417969,21 L271.800781,21 L271.800781,19.8046875 L271.667969,19.8046875 C271.160156,20.65625 270.230469,21.140625 269.113281,21.140625 Z" id="Beta" fill="#2684FF"></path>
                </g>
            </g>
        </g>
    </g>
</svg>